<?xml version="1.0" encoding="utf-8"?>
<!-- Generator: Adobe Illustrator 22.0.1, SVG Export Plug-In . SVG Version: 6.00 Build 0)  -->
<svg version="1.1" id="Layer_1" xmlns="http://www.w3.org/2000/svg" xmlns:xlink="http://www.w3.org/1999/xlink" x="0px" y="0px"
	 width="250.1px" height="250.09px" viewBox="0 0 250.1 250.09" enable-background="new 0 0 250.1 250.09" xml:space="preserve">
<g>
	<path fill="#FFFFFF" d="M248.11,125.04c0,67.96-55.1,123.05-123.05,123.05c-67.96,0-123.06-55.09-123.06-123.05
		c0-67.96,55.1-123.05,123.06-123.05C193.01,1.99,248.11,57.08,248.11,125.04"/>
	<path d="M145.51,51.19l-15.52,0.85l-5.56,5.06l-5.04-5.13l-17.24,0.94L88.94,72.44l15.76,11.47l0.36,14.46l41.08-0.08l-0.41-15.33
		l16.11-9.75L145.51,51.19z M105.09,80.97l-5.52-4.02l5.37-4.62L105.09,80.97z M145.44,71.63l6.22,5.06l-5.98,3.35L145.44,71.63z
		 M131.55,45.03c0.2,3.81-2.71,7.07-6.52,7.27c-3.81,0.21-7.06-2.71-7.27-6.52c-0.2-3.81,2.71-7.07,6.52-7.28
		C128.09,38.31,131.35,41.23,131.55,45.03 M201.48,121.78l-5.18-14.65l-6.42-3.91l3.5-6.28l-5.75-16.28l-22.46-7.17l-6.56,18.35
		l-13.78,4.42l11.64,39.39l14.6-4.7l13.89,12.72L201.48,121.78z M161.53,91.37l2.31-6.43l5.94,3.85L161.53,91.37z M181.85,127.46
		l-3.11,7.39l-4.9-4.79L181.85,127.46z M203.46,106.65c-3.6,1.27-7.55-0.61-8.82-4.21c-1.27-3.59,0.61-7.55,4.22-8.82
		c3.59-1.27,7.54,0.61,8.81,4.21C208.94,101.43,207.05,105.38,203.46,106.65 M151.94,195.82l12.03-9.84l1.51-7.36l7.09,1.17
		l13.37-10.93l-0.86-23.56l-19.48,0.04l-8.82-11.48l-33.13,24.29l9.36,12.14l-7.27,17.38L151.94,195.82z M167.04,147.93h6.83
		l-1.61,6.89L167.04,147.93z M139.95,179.27l-8.02-0.42l2.85-6.24L139.95,179.27z M166.84,192.56c-2.41-2.95-1.98-7.3,0.98-9.73
		c2.95-2.41,7.3-1.97,9.72,0.98c2.41,2.95,1.98,7.3-0.98,9.73C173.61,195.95,169.26,195.51,166.84,192.56 M65.76,170.95l12.92,8.64
		l7.49-0.71l0.95,7.13l14.36,9.6l22.29-7.7l-5.73-18.63l8.39-11.78L93.52,132.9l-8.87,12.51l-18.74-1.88L65.76,170.95z
		 M115.96,171.4l2.01,6.53l-7.07,0.47L115.96,171.4z M78.08,154.65l-1.94-7.79l6.8,0.91L78.08,154.65z M73.23,184.25
		c2.12-3.17,6.41-4.03,9.58-1.91c3.17,2.12,4.03,6.41,1.91,9.58c-2.12,3.17-6.41,4.03-9.58,1.91
		C71.96,191.72,71.11,187.43,73.23,184.25 M61.66,81.62l-3.91,15.04l3.13,6.84l-6.42,3.23l-4.35,16.72l14.59,18.52l15.71-11.53
		l13.9,4.06l12.41-39.16l-14.72-4.28l-4.38-18.31L61.66,81.62z M77.73,129.19l-5.51,4.03l-2.77-6.52L77.73,129.19z M81.1,87.9
		l6.72-4.39l1.38,6.72L81.1,87.9z M51.55,93.04c3.69,0.96,5.91,4.73,4.95,8.42c-0.96,3.69-4.74,5.91-8.42,4.95
		c-3.7-0.96-5.91-4.74-4.95-8.42C44.08,94.3,47.85,92.08,51.55,93.04"/>
	<g>
		<path fill="#CC2128" d="M103.15,55.56l15.83-1.07l5.42,6.08l7.14-5.9l13.26-0.61l13.78,18.81l-4.72,2.75l-9.75-8.23l-1.2,1.8
			l0.05,12.75l-35.22,0.51l-0.08-13.18l-1.39-1.65l-9.08,7.85l-5.5-3.7L103.15,55.56z M108.06,95.73l35.04,0.24l-0.29-11.12l-35,0.4
			L108.06,95.73z"/>
		<path fill="#5696D1" d="M185.37,82.37l5.49,14.89l-4.31,6.91l7.67,5.18l4.33,12.56l-14.17,18.52l-3.97-3.75l5.15-11.66l-2.06-0.64
			L171.28,128l-10.41-33.64l12.63-3.78l1.2-1.79l-10.09-6.51l2-6.32L185.37,82.37z M148.21,98.38l9.62,33.69l10.6-3.41l-10.24-33.47
			L148.21,98.38z"/>
		<path fill="#E8C133" d="M183.57,167.32l-12.15,10.21l-7.96-1.73l-2.28,8.98l-10.35,8.32l-22.22-7.07l2.19-4.99l12.72,0.89
			l-0.09-2.16l-7.56-10.27l28.14-21.18l7.83,10.6l2.1,0.52l2.71-11.69l6.62-0.26L183.57,167.32z M155.95,137.76l-28.45,20.46
			l6.78,8.82l28.04-20.96L155.95,137.76z"/>
		<path fill="#A8A7A9" d="M102.26,192.87l-13.31-8.64l-0.68-8.11l-9.25,0.44l-10.98-7.47l0.26-23.32l5.42,0.64l2.86,12.43l2.04-0.72
			l7.61-10.22l28.48,20.71l-7.86,10.59l0.12,2.16l11.97-0.83l2.18,6.26L102.26,192.87z M122.45,157.81l-27.88-21.23l-6.44,9.07
			l28.24,20.68L122.45,157.81z"/>
		<path fill="#5E9D55" d="M52.94,123.29l3.78-15.41l7.44-3.31l-3.45-8.59l3.44-12.82l22.11-7.41l1.18,5.32l-10.8,6.79L78,89.55
			l12.16,3.83l-10.21,33.7l-12.59-3.94l-2,0.83l4.71,11.04l-5.2,4.11L52.94,123.29z M92.68,130.85l10.9-33.31L92.9,94.43
			L82.63,127.9L92.68,130.85z"/>
	</g>
	<path d="M125.05,250.04c-68.93,0-125-56.07-125-124.99c0-68.92,56.08-125,125-125c68.92,0,125,56.07,125,125
		C250.05,193.97,193.97,250.04,125.05,250.04z M125.05,3.93C58.27,3.93,3.94,58.27,3.94,125.05s54.33,121.11,121.12,121.11
		c66.78,0,121.11-54.33,121.11-121.11S191.83,3.93,125.05,3.93z M125.62,217.9c-52.08,0-94.44-42.26-94.44-94.21
		s42.37-94.21,94.44-94.21c52.07,0,94.43,42.26,94.43,94.21S177.68,217.9,125.62,217.9z M125.62,33.37
		c-49.93,0-90.55,40.52-90.55,90.33s40.62,90.33,90.55,90.33c49.93,0,90.54-40.52,90.54-90.33S175.54,33.37,125.62,33.37z
		 M124.83,146.32c-11.64,0-21.11-9.47-21.11-21.1c0-11.64,9.47-21.1,21.11-21.1c11.63,0,21.1,9.47,21.1,21.1
		C145.93,136.86,136.47,146.32,124.83,146.32z M124.83,108c-9.5,0-17.22,7.73-17.22,17.22s7.72,17.22,17.22,17.22
		c9.49,0,17.21-7.73,17.21-17.22S134.32,108,124.83,108z"/>
	<path d="M108.67,221.36l3.73,0.58l-2.82,17.96l-3.73-0.58L108.67,221.36z M103.33,220.52l-3.38-1.07l-3.87,12.31l-3.19-14.52
		l-3.63-1.14l-5.46,17.34l3.38,1.07L91,222.4l3.07,14.26l3.8,1.2L103.33,220.52z M77.17,230.61l1.53-2.84l-4.81-2.6L81,212.01
		l-3.36-1.82l-7.11,13.16l-4.79-2.58l-1.53,2.83L77.17,230.61z M47.71,211.08l10.39,8.36l11.39-14.17l-10.73-8.63l-2.05,2.54
		l7.85,6.31l-2.93,3.64l-6.89-5.53l-1.98,2.46l6.88,5.53l-2.42,3.01l-7.49-6.03L47.71,211.08z M43.11,177.83l-1.68-3.11l-11.34,6.15
		l7.82-12.65l-1.81-3.34l-15.98,8.65l1.69,3.12l11.15-6.04l-7.71,12.38l1.89,3.5L43.11,177.83z M34.48,161.26l-1.15-3.81l-3.93-0.11
		l-1.93-6.41l3.23-2.22l-1.18-3.94l-15.56,11.4l1.24,4.11L34.48,161.26z M18.57,157.06l6.19-4.25l1.34,4.46L18.57,157.06z
		 M11.45,146.2l3.19-0.39l-0.66-5.43l14.86-1.79l-0.46-3.8l-14.85,1.79l-0.66-5.4l-3.19,0.39L11.45,146.2z M9.76,121.48l-0.06,3.78
		l18.18,0.3l0.06-3.78L9.76,121.48z M28.68,102.24c-1.41-2.1-3.72-3.41-6.94-3.95c-3.28-0.55-5.9-0.07-7.85,1.47
		c-1.62,1.12-2.65,2.96-3.08,5.52c-0.43,2.57-0.06,4.64,1.1,6.23c1.34,2.1,3.65,3.41,6.93,3.97c3.22,0.54,5.84,0.05,7.86-1.48
		c1.62-1.12,2.65-2.97,3.08-5.52C30.21,105.9,29.84,103.83,28.68,102.24 M25.56,104.13c0.95,1.05,1.29,2.32,1.05,3.81
		c-0.26,1.48-1,2.58-2.24,3.28c-1.25,0.7-2.88,0.88-4.9,0.55c-2.02-0.34-3.5-1.04-4.45-2.11c-0.95-1.07-1.29-2.35-1.04-3.83
		c0.25-1.48,1-2.57,2.25-3.25c1.24-0.69,2.87-0.86,4.88-0.52C23.13,102.37,24.61,103.07,25.56,104.13 M32.1,95.52l1.3-3.29
		l-11.99-4.75l14.72-2.13l1.4-3.53l-16.9-6.71l-1.3,3.29l11.78,4.67l-14.44,2.04l-1.47,3.7L32.1,95.52z M39.27,78.26l2.18-3.32
		L39,71.86l3.68-5.59l3.78,1.05l2.26-3.44l-18.72-4.61l-2.36,3.6L39.27,78.26z M32.26,63.38l7.24,2.01l-2.56,3.89L32.26,63.38z
		 M51.47,60.88l8.96-9.25l-2.35-2.27l-6.32,6.52L41.05,45.51l-2.64,2.72L51.47,60.88z M92.22,25.34l0.11,0.4
		c0.55,2.07,1.38,3.59,2.46,4.58c1.08,0.99,2.74,1.18,4.96,0.58c2.22-0.6,3.56-1.76,4.03-3.46c0.26-1.01,0.2-2.26-0.2-3.75
		l-3.3-12.21l-3.66,0.98l3.31,12.28c0.23,0.86,0.31,1.48,0.25,1.88c-0.1,0.67-0.55,1.12-1.36,1.34c-0.82,0.22-1.43,0.09-1.83-0.39
		c-0.4-0.48-0.79-1.4-1.2-2.75l-0.11-0.41L92.22,25.34z M110.1,20.85c0.16,1.92,0.58,3.4,1.26,4.43c1.28,1.87,3.49,2.69,6.62,2.43
		c3.13-0.26,5.18-1.41,6.13-3.47c0.51-1.12,0.68-2.65,0.53-4.57l-0.9-11.14l-3.85,0.32l0.9,11.13c0.11,1.24,0.03,2.16-0.22,2.76
		c-0.37,1.05-1.32,1.64-2.85,1.76c-1.54,0.13-2.57-0.3-3.11-1.28c-0.34-0.55-0.56-1.45-0.66-2.69L113.04,9.4l-3.84,0.31L110.1,20.85
		z M143.24,10.39c-0.71-0.34-1.63-0.58-2.75-0.73l-7.78-0.93l-2.17,18.04l7.78,0.94c2.73,0.33,4.88-0.55,6.46-2.64
		c1.17-1.54,1.89-3.52,2.18-5.92c0.11-0.95,0.12-1.96,0.02-3.03c-0.11-1.07-0.42-2.1-0.94-3.07
		C145.39,11.84,144.46,10.96,143.24,10.39 M139.48,12.71c1.72,0.21,2.81,0.84,3.26,1.89c0.46,1.05,0.58,2.5,0.36,4.34
		c-0.16,1.33-0.48,2.45-0.99,3.37c-0.92,1.67-2.26,2.4-4.04,2.19l-3.48-0.42L136,12.3L139.48,12.71z M163.96,32.65
		c2.3-1.04,3.98-3.11,5.03-6.2c1.08-3.15,1.03-5.81-0.17-7.98c-0.84-1.79-2.48-3.1-4.94-3.94c-2.46-0.84-4.56-0.82-6.33,0.08
		c-2.28,0.98-3.97,3.04-5.04,6.2c-1.06,3.09-1,5.74,0.17,7.98c0.84,1.79,2.49,3.1,4.95,3.94C160.1,33.57,162.2,33.55,163.96,32.65
		 M162.61,29.27c-1.2,0.76-2.51,0.9-3.93,0.41c-1.42-0.48-2.38-1.4-2.87-2.74c-0.48-1.34-0.4-2.98,0.26-4.92
		c0.67-1.93,1.6-3.28,2.81-4.04c1.21-0.76,2.53-0.89,3.95-0.41c1.42,0.49,2.37,1.41,2.85,2.75c0.48,1.34,0.38,2.97-0.28,4.9
		C164.74,27.16,163.81,28.51,162.61,29.27 M198.97,59.42l2.35,2.95l5.96-4.74l5.01,6.3l2.47-1.96l-5.01-6.3l3.27-2.6l5.72,7.19
		l2.5-1.99l-8.07-10.14L198.97,59.42z M231.67,76.45l-6.27-11.77l-16.05,8.55l6.48,12.16l2.88-1.54l-4.73-8.88l4.12-2.2l4.16,7.8
		l2.79-1.48l-4.15-7.8l3.41-1.82l4.53,8.49L231.67,76.45z M237.7,94.78c0.02-0.79-0.13-1.73-0.43-2.81l-2.26-7.51l-17.41,5.24
		l2.26,7.5c0.79,2.63,2.46,4.25,5,4.87c1.88,0.45,3.99,0.32,6.3-0.38c0.92-0.27,1.85-0.67,2.79-1.2c0.94-0.53,1.76-1.23,2.44-2.09
		C237.23,97.33,237.66,96.12,237.7,94.78 M234.06,92.27c0.5,1.66,0.36,2.91-0.42,3.75c-0.79,0.84-2.06,1.53-3.83,2.06
		c-1.29,0.39-2.45,0.54-3.49,0.45c-1.89-0.17-3.1-1.11-3.63-2.83l-1.01-3.36l11.36-3.42L234.06,92.27z M242.12,120.58l-1.27-13.27
		l-18.1,1.73l1.32,13.71l3.25-0.31l-0.96-10.02l4.65-0.45l0.84,8.79l3.14-0.3l-0.84-8.79l3.84-0.36l0.92,9.57L242.12,120.58z
		 M221.93,145.93l-1.18,3.79l3.2,2.29l-1.99,6.39l-3.92,0.04l-1.23,3.94l19.27-0.74l1.28-4.1L221.93,145.93z M232.77,158.31
		l-7.52,0.06l1.39-4.44L232.77,158.31z M232.6,171.3l-2.87-1.46l-2.49,4.86l-13.31-6.83l-1.75,3.41l13.31,6.82l-2.48,4.84l2.87,1.47
		L232.6,171.3z M220.16,192.7l2.16-3.1l-14.92-10.38l-2.16,3.1L220.16,192.7z M193.67,198.05c-0.01,2.52,1.17,4.91,3.53,7.17
		c2.41,2.29,4.85,3.36,7.33,3.19c1.97-0.02,3.85-0.96,5.65-2.85c1.79-1.88,2.66-3.8,2.58-5.77c0.06-2.49-1.11-4.88-3.52-7.18
		c-2.36-2.26-4.81-3.31-7.33-3.18c-1.97,0.02-3.85,0.96-5.65,2.85C194.46,194.15,193.6,196.08,193.67,198.05 M197.31,198.24
		c-0.2-1.41,0.23-2.65,1.27-3.74c1.04-1.09,2.27-1.57,3.69-1.45c1.42,0.11,2.87,0.88,4.35,2.29c1.48,1.42,2.32,2.83,2.5,4.25
		c0.18,1.42-0.24,2.66-1.29,3.75c-1.04,1.09-2.26,1.57-3.68,1.44c-1.42-0.14-2.86-0.9-4.34-2.31
		C198.34,201.06,197.51,199.65,197.31,198.24 M187.08,201.7l-2.92,2l7.28,10.65l-13.39-6.47l-3.13,2.14l10.26,15.01l2.92-2
		l-7.16-10.46l13.12,6.39l3.28-2.25L187.08,201.7z M45.52,182.24l0.35-0.29l2.69,3.21c-0.93,1.44-1.86,2.09-2.96,3.05
		c-0.88,0.76-1.34,1.41-1.39,1.95c-0.05,0.55,0.27,1.22,0.95,2.03l2.39,2.84l5.46-4.58l2.39,2.85l-13.93,11.68l-5.59-6.66
		c-3.09-3.65-1.2-6.61,0.23-7.79c1.36-1.14,3.37-1.71,5.11-0.62c-0.28-0.86-0.3-1.62-0.05-2.29c0.43-1.1,1.5-1.94,2.78-3.01
		C44.54,184.11,45.7,183.29,45.52,182.24z M38.94,193.12c-1.51,1.26-1.25,2.46-0.14,3.78l2.69,3.21l3.74-3.14l-2.62-3.13
		C41.57,192.59,40.46,191.85,38.94,193.12z M223.04,142.3l-0.45-0.05l0.41-4.17c1.68-0.34,2.79-0.13,4.25-0.01
		c1.16,0.1,1.95-0.03,2.37-0.37c0.42-0.35,0.68-1.04,0.79-2.1l0.36-3.69l-7.09-0.7l0.36-3.7l18.09,1.79l-0.85,8.65
		c-0.45,4.76-3.89,5.48-5.73,5.28c-1.77-0.17-3.58-1.21-4.02-3.22c-0.42,0.8-0.95,1.35-1.6,1.63c-1.09,0.46-2.44,0.28-4.09,0.12
		C225.07,141.69,223.67,141.44,223.04,142.3z M235.42,139.39c1.95,0.19,2.63-0.83,2.8-2.54l0.41-4.17l-4.86-0.48l-0.4,4.06
		C233.2,137.88,233.44,139.2,235.42,139.39z"/>
</g>
</svg>
