<svg version="1.2" xmlns="http://www.w3.org/2000/svg" viewBox="0 0 342 342" width="342" height="342">
	<title>olimpiyat</title>
	<style>
		.s0 { fill: none;stroke: #0078d0;stroke-width: 9.5 } 
		.s1 { fill: none;stroke: #000000;stroke-width: 9.5 } 
		.s2 { fill: none;stroke: #f0282d;stroke-width: 9.5 } 
		.s3 { fill: none;stroke: #ffb114;stroke-width: 9.5 } 
		.s4 { fill: none;stroke: #00a651;stroke-width: 9.5 } 
	</style>
	<g>
		<path fill-rule="evenodd" class="s0" d="m54 195.3c-27.2-0.1-49.3-22.1-49.3-49.3 0-27.2 22.1-49.3 49.3-49.3 27.2 0 49.3 22.1 49.3 49.3 0 27.2-22.1 49.2-49.3 49.2z"/>
		<path fill-rule="evenodd" class="s1" d="m171 195.3c-27.2-0.1-49.3-22.1-49.3-49.3 0-27.2 22.1-49.3 49.3-49.3 27.2 0 49.3 22.1 49.3 49.3 0 27.2-22.1 49.2-49.3 49.2z"/>
		<path fill-rule="evenodd" class="s2" d="m288 195.3c-27.2-0.1-49.3-22.1-49.3-49.3 0-27.2 22.1-49.3 49.3-49.3 27.2 0 49.3 22.1 49.3 49.3 0 27.2-22.1 49.2-49.3 49.2z"/>
		<path fill-rule="evenodd" class="s3" d="m112.5 245.3c-27.2-0.1-49.3-22.1-49.3-49.3 0-27.2 22.1-49.3 49.3-49.3 27.2 0 49.3 22.1 49.3 49.3 0 27.2-22.1 49.2-49.3 49.2z"/>
		<path fill-rule="evenodd" class="s4" d="m229.5 245.3c-27.2-0.1-49.3-22.1-49.3-49.3 0-27.2 22.1-49.3 49.3-49.3 27.2 0 49.3 22.1 49.3 49.3 0 27.2-22.1 49.2-49.3 49.2z"/>
		<path class="s0" d="m93.4 116.5c3.2 4.2 5.6 8.9 7.3 13.9 1.7 5 2.5 10.3 2.5 15.6 0 5.3-0.8 10.6-2.5 15.6-1.7 5-4.1 9.7-7.3 14"/>
		<path class="s1" d="m210.4 116.5c3.2 4.2 5.6 8.9 7.3 13.9 1.7 5 2.5 10.3 2.5 15.6 0 5.3-0.8 10.6-2.5 15.6-1.7 5-4.1 9.7-7.3 14m-39.4 19.6q-4 0-7.9-0.6-3.9-0.6-7.7-1.9-3.7-1.2-7.3-3.1-3.5-1.8-6.7-4.2"/>
		<path class="s2" d="m288 195.3q-4-0.1-7.9-0.7-3.9-0.6-7.7-1.9-3.7-1.2-7.3-3.1-3.5-1.8-6.7-4.2"/>
	</g>
</svg>